<?xml version="1.0" encoding="utf-8"?>
<svg xmlns="http://www.w3.org/2000/svg"
    width="108"
    height="108"
    viewBox="0 0 160 160.875">

  <!-- Background -->
  <rect width="160" height="160.875" fill="#7E570F" rx="36"/>

  <!-- Content: translate(43.4, 43.44) scale(0.4575, 0.46) translate(0, 130.36) -->
  <g transform="translate(43.400154, 43.43625) scale(0.45749804, 0.46) translate(0, 130.35938)">
    <path d="M10.96875,-0L10.96875,-10.765625L36.21875,-10.765625L36.21875,-86.984375L13.859375,-71.015625L13.859375,-82.96875L37.265625,-99.078125L48.9375,-99.078125L48.9375,-10.765625L73.0625,-10.765625L73.0625,-0L10.96875,-0Z"
        fill="#FFF9C4"/>
    <path d="M154.04688,-32.28125Q154.04688,-16.59375,144.71875,-7.59375Q135.40625,1.40625,118.890625,1.40625Q105.03125,1.40625,96.515625,-4.640625Q88.015625,-10.6875,85.765625,-22.15625L98.5625,-23.625Q102.578125,-8.9375,119.171875,-8.9375Q129.35938,-8.9375,135.125,-15.078125Q140.89062,-21.234375,140.89062,-32Q140.89062,-41.34375,135.09375,-47.109375Q129.29688,-52.875,119.453125,-52.875Q114.3125,-52.875,109.875,-51.25Q105.453125,-49.640625,101.03125,-45.78125L88.65625,-45.78125L91.953125,-99.078125L148.28125,-99.078125L148.28125,-88.3125L103.484375,-88.3125L101.59375,-56.890625Q109.8125,-63.21875,122.046875,-63.21875Q136.67188,-63.21875,145.35938,-54.640625Q154.04688,-46.0625,154.04688,-32.28125Z"
        fill="#FFF9C4"/>
  </g>
</svg>
